<svg width="21" height="12" viewBox="0 0 21 12" fill="none" xmlns="http://www.w3.org/2000/svg">
<path d="M10.4557 11.9986C7.45662 11.9986 4.45677 11.9986 1.45769 11.9986C1.34243 11.9986 1.22717 12.0035 1.11268 11.9929C0.522545 11.9378 0.263593 11.4293 0.620132 10.9945C1.03584 10.4882 1.47536 9.99819 1.9049 9.50181C4.529 6.47614 7.15233 3.44977 9.77566 0.424101C9.81715 0.376019 9.85864 0.327229 9.90321 0.280561C10.2559 -0.0871293 10.6616 -0.0998571 11.002 0.280561C11.6713 1.02938 12.3229 1.79233 12.9807 2.55034C15.3589 5.29387 17.7363 8.03741 20.1145 10.7809C20.3312 11.0313 20.5802 11.2752 20.3935 11.6316C20.2067 11.9872 19.851 12.0007 19.4837 12C16.4746 11.9971 13.4655 11.9986 10.4565 11.9986H10.4557Z" fill="#636366" />
</svg>
