<svg width="21" height="12" viewBox="0 0 21 12" fill="none" xmlns="http://www.w3.org/2000/svg">
<path d="M10.227 11.9993C9.84878 11.7817 9.62969 11.4286 9.36216 11.1203C6.48774 7.80626 3.61948 4.48799 0.750444 1.16973C0.678949 1.08679 0.605148 1.00385 0.549028 0.912401C0.334542 0.566468 0.512127 0.162407 0.924954 0.0404793C1.08409 -0.00630685 1.24707 0.000781045 1.40928 0.000781045C7.44101 0.000781045 13.4727 0.000781045 19.5045 0.000781045C19.6098 0.000781045 19.7167 -0.0034718 19.8204 0.00787028C20.3939 0.0702517 20.6446 0.570722 20.3017 0.999594C19.978 1.40507 19.6267 1.79212 19.2862 2.18626C16.5601 5.33794 13.8333 8.48962 11.1073 11.642C10.9866 11.7817 10.8559 11.9086 10.6883 12H10.2278L10.227 11.9993Z" fill="#636366"/>
</svg>
