<svg width="16" height="20" viewBox="0 0 16 20" fill="none" xmlns="http://www.w3.org/2000/svg">
<path d="M6.92432 0C7.31489 0 7.70494 0 8.09551 0C8.1268 0.00782187 8.15809 0.0187725 8.1899 0.0229441C10.6527 0.334776 12.542 2.50039 12.5211 4.98827C12.517 5.47792 12.1561 5.85128 11.6795 5.85806C11.2185 5.86484 10.8306 5.48209 10.816 5.0013C10.8118 4.85842 10.8034 4.71659 10.7842 4.57423C10.5349 2.73974 8.91055 1.49189 7.07137 1.7255C5.45276 1.93096 4.21065 3.33524 4.20596 4.96689C4.20387 5.7084 4.20544 6.44991 4.20596 7.19143C4.20596 7.38298 4.30469 7.47892 4.50215 7.47927C7.38372 7.47927 10.2658 7.47823 13.1474 7.47979C14.1908 7.48031 15.0179 8.30735 15.0184 9.35078C15.02 12.2782 15.02 15.2057 15.0184 18.1327C15.0179 19.1646 14.1893 19.9979 13.162 19.9984C9.39551 20 5.62902 20 1.86253 19.9984C0.833168 19.9984 0.00248534 19.1662 0.00196389 18.1363C0.000399512 15.2026 0.00092097 12.2689 0.00196389 9.33462C0.00196389 8.52323 0.538023 7.80883 1.31239 7.55905C1.61848 7.4605 1.92927 7.48292 2.24006 7.47927C2.49505 7.47614 2.49923 7.47458 2.49923 7.21281C2.49923 6.46451 2.4914 5.71674 2.50079 4.96845C2.52373 3.17359 3.31061 1.78808 4.78269 0.783751C5.42773 0.344684 6.15621 0.113678 6.92432 0Z" fill="#3ABD1B"/>
</svg>
