<svg width="25" height="24" viewBox="0 0 25 24" fill="none" xmlns="http://www.w3.org/2000/svg">
<path fill-rule="evenodd" clip-rule="evenodd" d="M22.1282 3.30392H14.5307V1.51367L2.04248 3.44117V20.3364L14.5307 22.4874V19.8339H22.1282C22.3583 19.8456 22.5837 19.7656 22.755 19.6116C22.9263 19.4576 23.0297 19.242 23.0425 19.0119V4.12517C23.0295 3.89527 22.9261 3.67985 22.7548 3.52597C22.5834 3.37209 22.3582 3.29226 22.1282 3.30392ZM22.2482 19.1484H14.5052L14.4925 17.7317H16.3577V16.0817H14.4782L14.4692 15.1067H16.3577V13.4567H14.455L14.446 12.4817H16.3577V10.8317H14.44V9.85667H16.3577V8.20667H14.44V7.23167H16.3577V5.58167H14.44V4.08167H22.2482V19.1484Z" fill="#20744A"/>
<path d="M17.4077 5.5791H20.65V7.2291H17.4077V5.5791ZM17.4077 8.20485H20.65V9.85485H17.4077V8.20485ZM17.4077 10.8306H20.65V12.4806H17.4077V10.8306ZM17.4077 13.4564H20.65V15.1064H17.4077V13.4564ZM17.4077 16.0821H20.65V17.7321H17.4077V16.0821Z" fill="#20744A"/>
<path fill-rule="evenodd" clip-rule="evenodd" d="M5.30267 8.00482L6.91217 7.91257L7.92392 10.6943L9.11942 7.79782L10.7289 7.70557L8.77442 11.6551L10.7289 15.6143L9.02717 15.4996L7.87817 12.4816L6.72842 15.3848L5.16467 15.2468L6.98117 11.7496L5.30267 8.00482Z" fill="white"/>
</svg>
