<svg width="20" height="20" viewBox="0 0 20 20" fill="none" xmlns="http://www.w3.org/2000/svg">
<g clip-path="url(#clip0_669_26497)">
<path d="M16.9992 14.4527V15.4193C16.982 15.49 16.9652 15.5611 16.9481 15.6317C16.7727 16.3597 16.3869 16.9502 15.7905 17.4032C15.3664 17.7254 14.8817 17.9024 14.3631 17.9969C10.2858 17.9969 6.20851 17.9961 2.13123 18C2.01485 18 1.99962 17.9664 2.00001 17.8621C2.0043 16.8623 2.00235 15.8626 2.00235 14.8628C2.09491 14.2578 2.37766 13.7622 2.84944 13.3721C3.24272 13.0467 3.70239 12.869 4.18979 12.746C4.85605 12.5777 5.52544 12.4223 6.19679 12.275C6.23897 12.2656 6.29677 12.2672 6.31356 12.2278C6.33387 12.1797 6.2749 12.1563 6.24678 12.1258C6.13743 12.0079 6.02222 11.895 5.91482 11.7751C5.28604 11.071 4.91307 10.2536 4.86699 9.30611C4.84043 8.76052 4.84629 8.21337 4.84668 7.667C4.84668 7.22803 4.82637 6.78554 4.87324 6.35047C4.99977 5.1765 5.56801 4.2556 6.54789 3.59402C7.03411 3.26596 7.57775 3.08943 8.15302 3H9.03175C9.18913 3.03163 9.34809 3.05624 9.50352 3.09607C11.2016 3.53153 12.3354 5.00349 12.342 6.79726C12.3451 7.60178 12.3607 8.40669 12.326 9.21121C12.3025 9.75523 12.185 10.2723 11.953 10.7636C11.7124 11.2729 11.3676 11.7064 10.9688 12.0997C10.9286 12.1391 10.8525 12.1731 10.8673 12.2317C10.8853 12.3024 10.9743 12.2844 11.0317 12.2985C11.2731 12.357 11.5199 12.3953 11.7581 12.464C11.9472 12.5183 12.0924 12.4875 12.2588 12.3758C13.5578 11.5045 15.3164 11.7681 16.3134 12.9682C16.6751 13.4033 16.886 13.9048 16.9992 14.4527ZM8.55567 6.5848C8.10655 6.5848 7.65781 6.58753 7.20869 6.58285C7.10207 6.58168 7.02552 6.61604 6.95132 6.69103C6.59163 7.05619 6.22881 7.41822 5.86405 7.77791C5.79297 7.84782 5.75899 7.92085 5.76055 8.02239C5.76563 8.34459 5.75626 8.66679 5.76407 8.9886C5.7793 9.62987 5.92263 10.234 6.29286 10.7714C6.66622 11.3139 7.15362 11.7408 7.67656 12.1286C8.22566 12.5363 8.95442 12.5347 9.50782 12.1325C9.89563 11.8505 10.2569 11.5377 10.5771 11.1799C10.9614 10.7503 11.2368 10.2633 11.35 9.69157C11.4594 9.14052 11.4156 8.5836 11.4215 8.02864C11.4223 7.96342 11.3762 7.92319 11.3348 7.8818C10.9349 7.48149 10.5334 7.08196 10.1354 6.6797C10.0686 6.61214 9.99834 6.58246 9.90305 6.58324C9.45392 6.58675 9.0048 6.5848 8.55567 6.5848ZM5.28331 17.0928C6.0105 17.0928 6.73769 17.0932 7.46488 17.0916C7.51565 17.0916 7.58283 17.1142 7.61095 17.0561C7.63516 17.0057 7.58049 16.9682 7.55393 16.9303C7.3485 16.6393 7.1419 16.3492 6.93531 16.059C6.35223 15.24 5.76953 14.4211 5.18567 13.6029C5.14271 13.5427 5.11225 13.4631 5.00563 13.4904C4.60923 13.5923 4.19955 13.6544 3.82892 13.8345C3.23686 14.1223 2.88693 14.5671 2.91271 15.265C2.93263 15.8012 2.91622 16.3386 2.917 16.8756C2.917 17.0799 2.92872 17.0924 3.13141 17.0924C3.84884 17.0932 4.56588 17.0928 5.28331 17.0928ZM11.4117 6.66603C11.4074 5.74396 10.8876 4.71331 9.85032 4.19467C8.82437 3.6815 7.58439 3.84826 6.72051 4.61255C6.16086 5.10737 5.67932 6.1224 5.8207 6.53169C6.04487 6.30712 6.26826 6.08998 6.48423 5.86503C6.60725 5.73654 6.74628 5.68069 6.92593 5.68147C7.99485 5.68655 9.06338 5.68772 10.1323 5.68069C10.3385 5.67952 10.4971 5.73927 10.6384 5.88846C10.8829 6.14622 11.1387 6.39265 11.4117 6.66603ZM8.56465 16.728C8.61191 16.7167 8.62909 16.6722 8.6537 16.6382C8.83569 16.3843 9.01847 16.1312 9.19656 15.8743C9.29341 15.7348 9.46017 15.6103 9.46408 15.449C9.46837 15.2826 9.31176 15.1412 9.23209 14.9854C9.22975 14.9811 9.22702 14.9772 9.22506 14.9725C9.18992 14.8874 9.13094 14.8749 9.04776 14.9049C8.74235 15.0151 8.43578 15.0139 8.13154 14.9014C8.05031 14.8714 8.00423 14.896 7.96556 14.9674C7.88394 15.1174 7.79958 15.2662 7.71288 15.413C7.675 15.4771 7.6832 15.529 7.72499 15.5876C7.98079 15.9446 8.23465 16.3031 8.48967 16.6608C8.50881 16.6878 8.52443 16.721 8.56465 16.728ZM10.879 15.1217C10.8357 15.167 10.8169 15.1822 10.8036 15.201C10.3877 15.7848 9.97217 16.3691 9.55742 16.9537C9.53594 16.9842 9.4961 17.0143 9.51563 17.0561C9.53867 17.1057 9.59178 17.0912 9.63318 17.0912C10.287 17.0924 10.9403 17.0924 11.5941 17.0912C11.6308 17.0912 11.6824 17.1064 11.6992 17.0639C11.716 17.0213 11.6664 16.9986 11.6421 16.9709C11.3164 16.5964 11.0903 16.1695 10.9669 15.6884C10.9224 15.5146 10.9005 15.3373 10.879 15.1217ZM7.10168 13.0131C6.79901 13.0819 6.47564 13.1541 6.15305 13.2291C6.07845 13.2463 6.09486 13.2939 6.12727 13.34C6.19757 13.4396 6.26826 13.5392 6.33895 13.6388C6.5596 13.9489 6.77909 14.2598 7.0017 14.5687C7.02474 14.6003 7.06536 14.6898 7.10168 14.6171C7.19619 14.4293 7.41646 14.2758 7.28719 14.0133C7.24462 13.927 7.23524 13.8267 7.23368 13.7275C7.23017 13.5275 7.22314 13.3275 7.21689 13.128C7.21494 13.067 7.20947 13.0057 7.10168 13.0131ZM9.84993 14.1852C9.88469 14.3035 9.96827 14.4078 10.0261 14.5242C10.0722 14.6167 10.1116 14.5925 10.1589 14.5253C10.435 14.1356 10.7111 13.7458 10.9895 13.3576C11.0462 13.2783 11.0329 13.2381 10.9376 13.2174C10.6572 13.1561 10.3768 13.0924 10.0968 13.0296C10.0101 13.01 9.97139 13.0413 9.97178 13.1342C9.97256 13.3486 9.97647 13.5626 9.95304 13.7767C9.93781 13.9145 9.88977 14.0414 9.84993 14.1852ZM12.9673 13.0471C12.9309 13.0491 12.9196 13.0463 12.9122 13.0503C12.3889 13.3408 12.046 13.7755 11.8745 14.348C11.8456 14.4441 11.8886 14.4734 11.9741 14.4734C12.1444 14.4734 12.3147 14.4707 12.4849 14.475C12.583 14.4777 12.6236 14.4347 12.6357 14.3402C12.6533 14.2008 12.679 14.0621 12.7048 13.9235C12.7595 13.6271 12.8571 13.3435 12.9673 13.0471ZM14.9536 13.0526C15.1117 13.4849 15.2144 13.9243 15.2738 14.3742C15.2843 14.4546 15.3382 14.4746 15.4101 14.4738C15.5663 14.4726 15.7225 14.4746 15.8788 14.4738C16.0486 14.4726 16.0635 14.455 16.0143 14.2984C15.9319 14.0348 15.8057 13.7935 15.6292 13.5806C15.4445 13.3584 15.2328 13.1682 14.9536 13.0526ZM12.9469 16.8319C12.779 16.4015 12.6849 15.9606 12.6275 15.5111C12.6189 15.4427 12.5919 15.4009 12.5193 15.4009C12.3295 15.4009 12.1397 15.3994 11.9503 15.4017C11.8718 15.4025 11.8511 15.4458 11.8726 15.5193C12.044 16.1094 12.401 16.5476 12.9469 16.8319ZM14.9696 16.8233C15.505 16.5351 15.8592 16.1055 16.0276 15.5255C16.0545 15.4326 16.0213 15.399 15.9307 15.3998C15.7557 15.4013 15.5804 15.4017 15.405 15.3998C15.3199 15.3986 15.2843 15.4384 15.2734 15.5204C15.2543 15.6649 15.2285 15.8083 15.2035 15.952C15.1516 16.2484 15.0535 16.5316 14.9696 16.8233ZM13.9674 15.4002C13.8749 15.4002 13.7823 15.4033 13.6901 15.3994C13.5781 15.3943 13.5406 15.449 13.557 15.5525C13.6171 15.9286 13.7128 16.2945 13.8815 16.6382C13.8979 16.6714 13.9053 16.7225 13.951 16.7229C13.9967 16.7229 14.0045 16.6714 14.0205 16.6382C14.1615 16.3476 14.2545 16.041 14.3154 15.7247C14.3573 15.5083 14.2656 15.4002 14.0401 15.4002C14.0159 15.4002 13.9916 15.4002 13.9674 15.4002ZM13.9444 14.4738C14.0467 14.4738 14.149 14.4742 14.2518 14.4726C14.3263 14.4714 14.3552 14.432 14.3439 14.3578C14.2861 13.9751 14.1869 13.6044 14.0147 13.2561C14.0002 13.2268 13.9913 13.1823 13.9522 13.183C13.9053 13.1838 13.8983 13.2342 13.8823 13.2674C13.7155 13.6076 13.6202 13.9692 13.5605 14.3414C13.5468 14.4261 13.5765 14.4738 13.6671 14.4738C13.7597 14.4738 13.8518 14.4738 13.9444 14.4738ZM9.05088 13.5451C9.05166 13.3123 9.04854 13.3131 8.82905 13.3396C8.66971 13.3588 8.50842 13.3596 8.34908 13.3381C8.14209 13.3104 8.13467 13.3146 8.13545 13.5259C8.13545 13.5599 8.1331 13.5943 8.13779 13.6279C8.16161 13.8083 8.24168 13.9532 8.41469 14.027C8.56817 14.0926 8.72087 14.0801 8.85717 13.9797C9.00714 13.8696 9.06182 13.7142 9.05088 13.5451Z" fill="#525252"/>
</g>
<defs>
<clipPath id="clip0_669_26497">
<rect width="14.9992" height="15" fill="white" transform="translate(2 3)"/>
</clipPath>
</defs>
</svg>
