<svg width="49" height="48" viewBox="0 0 49 48" fill="none" xmlns="http://www.w3.org/2000/svg">
<path d="M24.457 41.5C19.8157 41.5 15.3645 39.6563 12.0827 36.3744C8.80078 33.0925 6.95703 28.6413 6.95703 24C6.95703 19.3587 8.80078 14.9075 12.0827 11.6256C15.3645 8.34374 19.8157 6.5 24.457 6.5C29.0983 6.5 33.5495 8.34374 36.8314 11.6256C40.1133 14.9075 41.957 19.3587 41.957 24C41.957 28.6413 40.1133 33.0925 36.8314 36.3744C33.5495 39.6563 29.0983 41.5 24.457 41.5ZM24.457 44C29.7614 44 34.8484 41.8929 38.5992 38.1421C42.3499 34.3914 44.457 29.3043 44.457 24C44.457 18.6957 42.3499 13.6086 38.5992 9.85786C34.8484 6.10714 29.7614 4 24.457 4C19.1527 4 14.0656 6.10714 10.3149 9.85786C6.56417 13.6086 4.45703 18.6957 4.45703 24C4.45703 29.3043 6.56417 34.3914 10.3149 38.1421C14.0656 41.8929 19.1527 44 24.457 44Z" fill="#FDB022"/>
<path d="M17.5943 18.465C17.5909 18.5457 17.604 18.6263 17.6329 18.7018C17.6617 18.7773 17.7057 18.846 17.7622 18.9039C17.8186 18.9617 17.8863 19.0074 17.961 19.0381C18.0358 19.0688 18.116 19.0839 18.1968 19.0825H20.2593C20.6043 19.0825 20.8793 18.8 20.9243 18.4575C21.1493 16.8175 22.2743 15.6225 24.2793 15.6225C25.9943 15.6225 27.5643 16.48 27.5643 18.5425C27.5643 20.13 26.6293 20.86 25.1518 21.97C23.4693 23.1925 22.1368 24.62 22.2318 26.9375L22.2393 27.48C22.2419 27.644 22.3089 27.8004 22.4258 27.9155C22.5428 28.0305 22.7002 28.095 22.8643 28.095H24.8918C25.0575 28.095 25.2165 28.0292 25.3337 27.9119C25.4509 27.7947 25.5168 27.6358 25.5168 27.47V27.2075C25.5168 25.4125 26.1993 24.89 28.0418 23.4925C29.5643 22.335 31.1518 21.05 31.1518 18.3525C31.1518 14.575 27.9618 12.75 24.4693 12.75C21.3018 12.75 17.8318 14.225 17.5943 18.465ZM21.4868 32.8725C21.4868 34.205 22.5493 35.19 24.0118 35.19C25.5343 35.19 26.5818 34.205 26.5818 32.8725C26.5818 31.4925 25.5318 30.5225 24.0093 30.5225C22.5493 30.5225 21.4868 31.4925 21.4868 32.8725Z" fill="#FDB022"/>
</svg>
