<svg width="28" height="25" viewBox="0 0 28 25" fill="none" xmlns="http://www.w3.org/2000/svg">
<path fill-rule="evenodd" clip-rule="evenodd" d="M14 18.0547C13.448 18.0547 13 17.6067 13 17.0547V1C13 0.448 13.448 0 14 0C14.552 0 15 0.448 15 1V17.0547C15 17.6067 14.552 18.0547 14 18.0547Z" fill="white"/>
<path fill-rule="evenodd" clip-rule="evenodd" d="M14.0004 18.055C13.7351 18.055 13.4791 17.9497 13.2924 17.7604L9.40445 13.8577C9.01512 13.4657 9.01645 12.8324 9.40712 12.443C9.79912 12.0537 10.4311 12.0537 10.8204 12.4457L14.0004 15.639L17.1804 12.4457C17.5698 12.0537 18.2018 12.0537 18.5938 12.443C18.9844 12.8324 18.9858 13.4657 18.5964 13.8577L14.7084 17.7604C14.5218 17.9497 14.2658 18.055 14.0004 18.055Z" fill="white"/>
<mask id="mask0_4743_1805" style="mask-type:luminance" maskUnits="userSpaceOnUse" x="0" y="6" width="28" height="19">
<path fill-rule="evenodd" clip-rule="evenodd" d="M0.666016 6.30957H27.3324V24.6349H0.666016V6.30957Z" fill="white"/>
</mask>
<g mask="url(#mask0_4743_1805)">
<path fill-rule="evenodd" clip-rule="evenodd" d="M21.4327 24.6349H6.57935C3.31935 24.6349 0.666016 21.9829 0.666016 18.7216V12.2082C0.666016 8.9549 3.31268 6.30957 6.56735 6.30957H7.82202C8.37402 6.30957 8.82201 6.75757 8.82201 7.30957C8.82201 7.86157 8.37402 8.30957 7.82202 8.30957H6.56735C4.41535 8.30957 2.66602 10.0576 2.66602 12.2082V18.7216C2.66602 20.8802 4.42068 22.6349 6.57935 22.6349H21.4327C23.582 22.6349 25.3327 20.8842 25.3327 18.7349V12.2229C25.3327 10.0642 23.5767 8.30957 21.4207 8.30957H20.178C19.626 8.30957 19.178 7.86157 19.178 7.30957C19.178 6.75757 19.626 6.30957 20.178 6.30957H21.4207C24.6807 6.30957 27.3327 8.9629 27.3327 12.2229V18.7349C27.3327 21.9882 24.6847 24.6349 21.4327 24.6349Z" fill="white"/>
</g>
</svg>
