<svg width="15" height="13" viewBox="0 0 15 13" fill="none" xmlns="http://www.w3.org/2000/svg">
<path d="M0.5 1.30738C0.59674 1.09199 0.763572 1 0.9994 1C5.333 1.00183 9.66698 1.0011 14.0006 1.00183C14.3047 1.00183 14.5003 1.17632 14.5 1.44136C14.4996 1.64214 14.3689 1.81298 14.1718 1.85716C14.0926 1.87504 14.0093 1.88052 13.9279 1.88052C9.63959 1.88162 5.35126 1.88052 1.06328 1.88308C0.815775 1.88308 0.614628 1.81883 0.500365 1.58117L0.5 1.30738Z" fill="#525252"/>
<path d="M0.5 8.33036C0.591265 8.1106 0.755541 8.0197 0.993559 8.0197C5.32753 8.02225 9.66113 8.02152 13.9951 8.02152C14.3072 8.02152 14.4974 8.18471 14.5 8.45193C14.5022 8.68666 14.3328 8.86919 14.0973 8.88452C14.0521 8.88744 14.0064 8.88598 13.9608 8.88598C9.64982 8.88598 5.33848 8.88489 1.02751 8.88927C0.788396 8.88927 0.611343 8.81808 0.5 8.60379V8.33036Z" fill="#525252"/>
<path d="M0.5 4.77761C0.611343 4.56369 0.78584 4.49177 1.02641 4.49213C4.05348 4.49761 7.08054 4.49542 10.1076 4.49579C10.4073 4.49579 10.5946 4.66371 10.592 4.92838C10.5902 5.15618 10.4245 5.33688 10.1974 5.35769C10.1569 5.36134 10.1156 5.35988 10.0747 5.35988C7.05206 5.35988 4.02975 5.35878 1.00707 5.36207C0.765397 5.36207 0.593455 5.27774 0.5 5.05104V4.77761Z" fill="#525252"/>
<path d="M0.5 11.8006C0.608787 11.5761 0.796062 11.4987 1.03554 11.4991C2.93822 11.5013 4.84127 11.5002 6.74395 11.5009C6.79835 11.5009 6.85311 11.5064 6.90677 11.5159C7.13128 11.5564 7.28643 11.7393 7.28059 11.9539C7.27511 12.1686 7.09623 12.3544 6.87172 12.3774C6.83558 12.3811 6.79908 12.38 6.76257 12.38C4.84602 12.38 2.92946 12.3785 1.01327 12.3818C0.773429 12.3821 0.599661 12.296 0.500365 12.074L0.5 11.8006Z" fill="#525252"/>
<path d="M0.5 1.30738C0.59674 1.09199 0.763572 1 0.9994 1C5.333 1.00183 9.66698 1.0011 14.0006 1.00183C14.3047 1.00183 14.5003 1.17632 14.5 1.44136C14.4996 1.64214 14.3689 1.81298 14.1718 1.85716C14.0926 1.87504 14.0093 1.88052 13.9279 1.88052C9.63959 1.88162 5.35126 1.88052 1.06328 1.88308C0.815775 1.88308 0.614628 1.81883 0.500365 1.58117L0.5 1.30738Z" stroke="#525252" stroke-width="0.5"/>
<path d="M0.5 8.33036C0.591265 8.1106 0.755541 8.0197 0.993559 8.0197C5.32753 8.02225 9.66113 8.02152 13.9951 8.02152C14.3072 8.02152 14.4974 8.18471 14.5 8.45193C14.5022 8.68666 14.3328 8.86919 14.0973 8.88452C14.0521 8.88744 14.0064 8.88598 13.9608 8.88598C9.64982 8.88598 5.33848 8.88489 1.02751 8.88927C0.788396 8.88927 0.611343 8.81808 0.5 8.60379V8.33036Z" stroke="#525252" stroke-width="0.5"/>
<path d="M0.5 4.77761C0.611343 4.56369 0.78584 4.49177 1.02641 4.49213C4.05348 4.49761 7.08054 4.49542 10.1076 4.49579C10.4073 4.49579 10.5946 4.66371 10.592 4.92838C10.5902 5.15618 10.4245 5.33688 10.1974 5.35769C10.1569 5.36134 10.1156 5.35988 10.0747 5.35988C7.05206 5.35988 4.02975 5.35878 1.00707 5.36207C0.765397 5.36207 0.593455 5.27774 0.5 5.05104V4.77761Z" stroke="#525252" stroke-width="0.5"/>
<path d="M0.5 11.8006C0.608787 11.5761 0.796062 11.4987 1.03554 11.4991C2.93822 11.5013 4.84127 11.5002 6.74395 11.5009C6.79835 11.5009 6.85311 11.5064 6.90677 11.5159C7.13128 11.5564 7.28643 11.7393 7.28059 11.9539C7.27511 12.1686 7.09623 12.3544 6.87172 12.3774C6.83558 12.3811 6.79908 12.38 6.76257 12.38C4.84602 12.38 2.92946 12.3785 1.01327 12.3818C0.773429 12.3821 0.599661 12.296 0.500365 12.074L0.5 11.8006Z" stroke="#525252" stroke-width="0.5"/>
</svg>
