<svg width="24" height="24" viewBox="0 0 24 24" fill="none" xmlns="http://www.w3.org/2000/svg">
<g clip-path="url(#clip0_4509_22717)">
<path d="M8.20093 21.9624C6.51353 21.9624 4.82676 21.9599 3.13937 21.9643C2.73939 21.9655 2.40316 21.8549 2.17005 21.5099C2.04694 21.328 2.00381 21.1256 2.00444 20.9118C2.00756 20.1481 1.98256 19.3825 2.02381 18.6207C2.14193 16.4184 3.10999 14.6522 4.87238 13.3348C6.09606 12.4199 7.49035 11.978 9.02275 11.9799C10.382 11.9818 11.7407 11.9743 13.1 11.9824C14.6068 11.9911 15.9629 12.4617 17.1747 13.3492C17.6472 13.6954 17.7485 14.2941 17.4235 14.7547C17.1041 15.2072 16.4848 15.3178 16.0136 14.9772C15.0355 14.2704 13.9499 13.9554 12.7438 13.9791C11.5182 14.0035 10.2914 13.9816 9.06525 13.9854C6.59853 13.9923 4.6074 15.6097 4.10243 18.0183C3.97869 18.6101 4.01556 19.2132 4.00994 19.8125C4.00869 19.925 4.05681 19.9669 4.1643 19.96C4.2268 19.9563 4.2893 19.96 4.35179 19.96C7.30411 19.96 10.257 19.96 13.2094 19.9613C13.365 19.9613 13.525 19.9613 13.675 19.9956C14.1206 20.0981 14.4455 20.5512 14.418 21.0056C14.3874 21.5049 14.0287 21.8936 13.5418 21.948C13.4256 21.9611 13.3081 21.963 13.1912 21.963C11.5276 21.9636 9.86395 21.963 8.2003 21.963L8.20093 21.9624Z" fill="#D92D20"/>
<path d="M11.0075 2.00035C13.4473 1.96972 15.4785 3.97772 15.5141 6.45569C15.5491 8.89117 13.5292 10.9542 11.0762 10.9885C8.59013 11.0235 6.53963 9.03116 6.50651 6.54756C6.47339 4.04272 8.46264 2.03284 11.0075 2.00035ZM8.51389 6.47319C8.50951 7.85311 9.61944 8.97241 11.0031 8.98553C12.3536 8.99803 13.4973 7.8656 13.5061 6.50631C13.5148 5.12328 12.3805 3.99397 10.9887 4.00085C9.62882 4.00772 8.51764 5.11703 8.51389 6.47319Z" fill="#D92D20"/>
<path d="M22 16.9779C22 17.2604 21.8944 17.4972 21.6994 17.6928C20.7076 18.6859 19.7183 19.6808 18.7183 20.6651C18.2965 21.0801 17.7165 21.0764 17.2934 20.6633C16.6297 20.0152 15.9735 19.359 15.3229 18.6978C14.9073 18.2753 14.9092 17.6753 15.3079 17.2747C15.7073 16.8741 16.3272 16.8816 16.7522 17.2985C17.1253 17.6641 17.4971 18.0309 17.8596 18.4072C17.9715 18.5228 18.034 18.5297 18.1515 18.4103C18.8577 17.6941 19.567 16.981 20.2863 16.2779C20.8482 15.7286 21.755 15.9761 21.9619 16.7254C21.9844 16.8066 21.9881 16.8935 22.0006 16.9773L22 16.9779Z" fill="#D92D20"/>
</g>
<defs>
<clipPath id="clip0_4509_22717">
<rect width="20" height="19.965" fill="white" transform="translate(2 2)"/>
</clipPath>
</defs>
</svg>
