<svg width="20" height="20" viewBox="0 0 20 20" fill="none" xmlns="http://www.w3.org/2000/svg">
<g clip-path="url(#clip0_676_11350)">
<path d="M4.20391 14.5297C4.20391 15.4531 4.71929 16.2591 5.52864 16.6016C6.41339 16.9762 7.39709 16.8035 8.06474 16.1473C8.65074 15.5711 9.23048 14.9888 9.81216 14.4083C9.9673 14.2534 10.1417 14.1421 10.3703 14.1738C10.609 14.2069 10.7795 14.3393 10.8645 14.5676C10.9539 14.8075 10.8886 15.0204 10.7185 15.1965C10.4145 15.5117 10.1037 15.8201 9.79054 16.1262C9.4303 16.4778 9.10368 16.8668 8.70885 17.1806C7.6387 18.0301 6.44461 18.2254 5.17368 17.737C3.95798 17.2698 3.25191 16.3444 3.04921 15.0703C2.8614 13.8869 3.21973 12.8555 4.06894 12.004C5.09346 10.976 6.12616 9.95568 7.14877 8.92527C7.83707 8.23209 8.66562 7.85168 9.63828 7.83825C10.5965 7.8253 11.4347 8.16301 12.1268 8.83556C12.3737 9.07542 12.3809 9.45774 12.1537 9.69328C11.9261 9.92882 11.549 9.93697 11.2954 9.69568C10.8242 9.24667 10.2661 9.02025 9.61714 9.03848C9.05084 9.05431 8.54362 9.24619 8.13823 9.64675C7.04213 10.7304 5.95324 11.8217 4.86483 12.9136C4.4066 13.3731 4.20391 13.8835 4.20439 14.5302L4.20391 14.5297Z" fill="#525252"/>
<path d="M14.5333 4.20975C13.906 4.21454 13.3622 4.41986 12.9146 4.87078C12.3444 5.44547 11.7676 6.01441 11.195 6.5867C11.0356 6.74596 10.8574 6.86253 10.621 6.82416C10.3842 6.78626 10.2137 6.65578 10.134 6.42312C10.048 6.17319 10.1249 5.96116 10.3016 5.78271C10.83 5.25071 11.3622 4.72255 11.8915 4.19152C12.027 4.05576 12.159 3.91616 12.3118 3.79864C13.3877 2.97018 14.5741 2.77542 15.8364 3.2652C17.0502 3.73627 17.7538 4.66403 17.9527 5.93861C18.1376 7.12253 17.775 8.15199 16.9253 9.00299C15.908 10.0219 14.8825 11.0322 13.8714 12.0568C13.185 12.7524 12.3613 13.1395 11.3891 13.1616C10.4232 13.1837 9.57971 12.8421 8.87988 12.1705C8.62819 11.9292 8.6181 11.5512 8.84193 11.3133C9.06768 11.0734 9.45578 11.0677 9.7142 11.3133C10.1816 11.7565 10.7354 11.9786 11.3771 11.9628C11.9439 11.9489 12.4525 11.7589 12.8574 11.3588C13.9795 10.2502 15.1049 9.14403 16.2029 8.01143C16.8259 7.3691 16.9474 6.56991 16.6789 5.73666C16.4128 4.91108 15.8191 4.41794 14.9627 4.24668C14.82 4.21838 14.6774 4.21214 14.5323 4.21071L14.5333 4.20975Z" fill="#525252"/>
</g>
<defs>
<clipPath id="clip0_676_11350">
<rect width="15" height="15" fill="white" transform="translate(3 3)"/>
</clipPath>
</defs>
</svg>
