<svg width="24" height="24" viewBox="0 0 24 24" fill="none" xmlns="http://www.w3.org/2000/svg">
<path d="M10.5451 21.9999C10.158 21.9652 9.76989 21.9363 9.38375 21.8948C7.87879 21.732 6.40413 21.4417 5.0155 20.8126C4.47344 20.5673 3.9744 20.254 3.55991 19.8165C2.79203 19.0061 2.81598 17.8809 3.61514 17.0989C4.25056 16.4776 5.0331 16.1193 5.85377 15.8324C6.62751 15.5621 7.42227 15.3661 8.23267 15.239C8.37637 15.2166 8.41205 15.1853 8.32358 15.0484C7.66031 14.0215 7.00143 12.9921 6.3445 11.9613C5.81222 11.1259 5.48376 10.2163 5.38014 9.22996C5.19049 7.42928 5.65483 5.81092 6.79174 4.40518C7.82551 3.12653 9.16331 2.33666 10.7963 2.08445C12.6801 1.79313 14.3767 2.25699 15.8503 3.45352C17.1363 4.49756 17.9179 5.8554 18.1701 7.50211C18.4292 9.19085 18.0611 10.7359 17.1182 12.1583C16.4863 13.1119 15.885 14.086 15.2648 15.0474C15.1768 15.1838 15.212 15.2136 15.3552 15.2386C16.5948 15.4551 17.8099 15.7557 18.9321 16.3486C19.4898 16.6433 20.0035 17.0011 20.3281 17.5598C20.7572 18.2988 20.6634 19.1024 20.0954 19.7422C19.59 20.3116 18.9404 20.666 18.2512 20.949C17.0405 21.4461 15.7697 21.7003 14.4754 21.8606C13.9861 21.9212 13.4934 21.9442 13.0042 21.9994L10.5451 21.9999ZM6.5449 8.50216C6.55419 8.60187 6.56641 8.68594 6.56885 8.77001C6.59818 9.66888 6.86212 10.4998 7.33966 11.254C8.77033 13.5107 10.2142 15.7591 11.6532 18.01C11.793 18.2284 11.7954 18.2284 11.9352 18.01C13.3629 15.7748 14.7946 13.5415 16.216 11.3019C17.0283 10.0218 17.2302 8.63462 16.8592 7.17072C16.1896 4.52787 13.6298 2.84255 10.9405 3.28881C8.44578 3.7028 6.57619 5.82999 6.5449 8.50216ZM11.7964 20.8161C11.9196 20.8068 12.0427 20.7897 12.1654 20.7897C13.2329 20.7862 14.2921 20.6934 15.3425 20.5042C16.3108 20.3297 17.26 20.0897 18.151 19.6591C18.5386 19.4719 18.9145 19.2632 19.1907 18.9191C19.4317 18.6185 19.4302 18.3526 19.1843 18.0554C18.8779 17.6854 18.4688 17.4562 18.0425 17.2587C16.9643 16.7592 15.8132 16.5289 14.6475 16.3549C14.4989 16.3329 14.4114 16.3843 14.3302 16.5133C13.6782 17.5471 13.0183 18.576 12.3619 19.6063C12.2808 19.7339 12.1913 19.8497 12.0462 19.9138C11.7343 20.0511 11.4508 19.9538 11.2357 19.6185C10.6184 18.6556 9.99229 17.6971 9.39646 16.721C9.22099 16.4341 9.05627 16.3207 8.70434 16.3833C7.60116 16.5798 6.50873 16.8022 5.48913 17.2861C5.06438 17.4874 4.65869 17.7221 4.36445 18.1048C4.17675 18.3487 4.17529 18.6102 4.35271 18.8614C4.42799 18.968 4.5145 19.0638 4.61666 19.1469C5.28384 19.6875 6.07469 19.9646 6.88363 20.1943C8.48879 20.6499 10.1355 20.7921 11.7964 20.8161Z" fill="#636366"/>
<path d="M11.8013 5.55627C13.4416 5.55676 14.7237 6.85936 14.7379 8.50851C14.7516 10.1019 13.3918 11.4529 11.7773 11.4441C10.1878 11.4358 8.82556 10.0927 8.84951 8.4743C8.87346 6.84861 10.1619 5.55578 11.8013 5.55627ZM10.0651 8.46794C10.0597 9.34042 10.7093 10.1889 11.7607 10.2217C12.621 10.2486 13.4837 9.59361 13.5189 8.53491C13.5477 7.66145 12.8825 6.7968 11.8179 6.77138C10.9322 6.75036 10.1096 7.42586 10.0651 8.46794Z" fill="#636366"/>
<path d="M10.5451 21.9999C10.158 21.9652 9.76989 21.9363 9.38375 21.8948C7.87879 21.732 6.40413 21.4417 5.0155 20.8126C4.47344 20.5673 3.9744 20.254 3.55991 19.8165C2.79203 19.0061 2.81598 17.8809 3.61514 17.0989C4.25056 16.4776 5.0331 16.1193 5.85377 15.8324C6.62751 15.5621 7.42227 15.3661 8.23267 15.239C8.37637 15.2166 8.41205 15.1853 8.32358 15.0484C7.66031 14.0215 7.00143 12.9921 6.3445 11.9613C5.81222 11.1259 5.48376 10.2163 5.38014 9.22996C5.19049 7.42928 5.65483 5.81092 6.79174 4.40518C7.82551 3.12653 9.16331 2.33666 10.7963 2.08445C12.6801 1.79313 14.3767 2.25699 15.8503 3.45352C17.1363 4.49756 17.9179 5.8554 18.1701 7.50211C18.4292 9.19085 18.0611 10.7359 17.1182 12.1583C16.4863 13.1119 15.885 14.086 15.2648 15.0474C15.1768 15.1838 15.212 15.2136 15.3552 15.2386C16.5948 15.4551 17.8099 15.7557 18.9321 16.3486C19.4898 16.6433 20.0035 17.0011 20.3281 17.5598C20.7572 18.2988 20.6634 19.1024 20.0954 19.7422C19.59 20.3116 18.9404 20.666 18.2512 20.949C17.0405 21.4461 15.7697 21.7003 14.4754 21.8606C13.9861 21.9212 13.4934 21.9442 13.0042 21.9994L10.5451 21.9999ZM6.5449 8.50216C6.55419 8.60187 6.56641 8.68594 6.56885 8.77001C6.59818 9.66888 6.86212 10.4998 7.33966 11.254C8.77033 13.5107 10.2142 15.7591 11.6532 18.01C11.793 18.2284 11.7954 18.2284 11.9352 18.01C13.3629 15.7748 14.7946 13.5415 16.216 11.3019C17.0283 10.0218 17.2302 8.63462 16.8592 7.17072C16.1896 4.52787 13.6298 2.84255 10.9405 3.28881C8.44578 3.7028 6.57619 5.82999 6.5449 8.50216ZM11.7964 20.8161C11.9196 20.8068 12.0427 20.7897 12.1654 20.7897C13.2329 20.7862 14.2921 20.6934 15.3425 20.5042C16.3108 20.3297 17.26 20.0897 18.151 19.6591C18.5386 19.4719 18.9145 19.2632 19.1907 18.9191C19.4317 18.6185 19.4302 18.3526 19.1843 18.0554C18.8779 17.6854 18.4688 17.4562 18.0425 17.2587C16.9643 16.7592 15.8132 16.5289 14.6475 16.3549C14.4989 16.3329 14.4114 16.3843 14.3302 16.5133C13.6782 17.5471 13.0183 18.576 12.3619 19.6063C12.2808 19.7339 12.1913 19.8497 12.0462 19.9138C11.7343 20.0511 11.4508 19.9538 11.2357 19.6185C10.6184 18.6556 9.99229 17.6971 9.39646 16.721C9.22099 16.4341 9.05627 16.3207 8.70434 16.3833C7.60116 16.5798 6.50873 16.8022 5.48913 17.2861C5.06438 17.4874 4.65869 17.7221 4.36445 18.1048C4.17675 18.3487 4.17529 18.6102 4.35271 18.8614C4.42799 18.968 4.5145 19.0638 4.61666 19.1469C5.28384 19.6875 6.07469 19.9646 6.88363 20.1943C8.48879 20.6499 10.1355 20.7921 11.7964 20.8161Z" stroke="#636366" stroke-width="0.6"/>
<path d="M11.8013 5.55627C13.4416 5.55676 14.7237 6.85936 14.7379 8.50851C14.7516 10.1019 13.3918 11.4529 11.7773 11.4441C10.1878 11.4358 8.82556 10.0927 8.84951 8.4743C8.87346 6.84861 10.1619 5.55578 11.8013 5.55627ZM10.0651 8.46794C10.0597 9.34042 10.7093 10.1889 11.7607 10.2217C12.621 10.2486 13.4837 9.59361 13.5189 8.53491C13.5477 7.66145 12.8825 6.7968 11.8179 6.77138C10.9322 6.75036 10.1096 7.42586 10.0651 8.46794Z" stroke="#636366" stroke-width="0.6"/>
</svg>
