<svg width="17" height="17" viewBox="0 0 17 17" fill="none" xmlns="http://www.w3.org/2000/svg">
<path d="M15.9962 8.78102C15.8385 9.15938 15.5419 9.43284 15.2866 9.74001C14.5995 10.5679 13.9086 11.392 13.2139 12.2124C12.8047 12.6919 12.2715 12.9541 11.6519 13.0553C11.4867 13.0815 11.3215 13.0852 11.1563 13.0852C9.90219 13.0852 8.65184 13.089 7.39773 13.0852C6.99221 13.0852 6.74439 13.325 6.49658 13.5872C6.45903 13.6247 6.4778 13.6696 6.48531 13.7108C6.5529 14.0742 6.42523 14.3627 6.1624 14.6136C5.73059 15.0295 5.3063 15.4528 4.87825 15.8686C4.82944 15.9173 4.77312 15.9547 4.72055 15.9997H4.48775C4.42768 15.951 4.36384 15.9023 4.31128 15.8498C3.26368 14.7972 2.21609 13.7446 1.1685 12.6882C0.943211 12.4634 0.943211 12.3248 1.17225 12.0963C1.59279 11.6767 2.01709 11.2572 2.43387 10.8339C2.63663 10.6278 2.86567 10.5042 3.1623 10.5267C3.24866 10.5342 3.29748 10.4967 3.33878 10.4255C3.95081 9.39912 4.87825 8.85594 6.046 8.69486C6.69558 8.60496 7.33014 8.67613 7.94218 8.90839C8.03229 8.9421 8.11865 8.95334 8.21252 8.95334C9.22257 8.95334 10.2326 8.95334 11.2427 8.95334C11.5956 8.95334 11.9073 9.05074 12.1626 9.29798C12.2339 9.36915 12.279 9.35417 12.3428 9.29049C12.8685 8.74731 13.4167 8.22661 13.9198 7.6647C14.5506 6.95669 15.6208 7.1365 15.9625 7.93816C15.9737 7.96064 15.9887 7.97937 16 8.00184V8.79226L15.9962 8.78102ZM9.39529 12.4559C10.0636 12.4559 10.732 12.4709 11.4004 12.4522C11.9335 12.4372 12.3916 12.2162 12.7446 11.8078C13.0637 11.4407 13.3716 11.0624 13.6833 10.6878C14.2202 10.0472 14.7609 9.40661 15.2941 8.75855C15.5044 8.50381 15.4706 8.17042 15.2378 7.97187C15.005 7.76584 14.6746 7.78082 14.4455 8.01308C13.8297 8.64242 13.2139 9.2755 12.5981 9.90859C12.5456 9.96478 12.5118 10.021 12.5155 10.1034C12.5456 10.7365 12.0312 11.3508 11.2502 11.3396C10.518 11.3283 9.78579 11.3396 9.0536 11.3396C9.00103 11.3396 8.94471 11.3396 8.89214 11.3321C8.73444 11.3059 8.63682 11.1935 8.63306 11.0436C8.62555 10.8788 8.71191 10.7627 8.87337 10.7252C8.93345 10.7102 8.99728 10.7102 9.06111 10.7102C9.81583 10.7102 10.5743 10.7102 11.329 10.7102C11.6557 10.7102 11.8885 10.463 11.8847 10.1408C11.8847 9.82243 11.6444 9.58643 11.3102 9.58643C10.2476 9.58643 9.18502 9.58643 8.11865 9.58643C8.02103 9.58643 7.9234 9.58268 7.83329 9.54147C7.28133 9.30922 6.70684 9.24553 6.11358 9.32046C5.15611 9.44033 4.40515 9.88611 3.88698 10.7065C3.82315 10.8076 3.83066 10.8676 3.91702 10.9537C4.59289 11.6205 5.265 12.2948 5.93711 12.9654C6.10608 13.1339 6.07604 13.1377 6.23749 12.9691C6.57918 12.6095 6.99597 12.4597 7.48409 12.4634C8.11865 12.4671 8.75322 12.4634 9.38778 12.4634L9.39529 12.4559ZM5.8883 13.8907C5.8883 13.7933 5.83573 13.7258 5.7719 13.6621C4.96461 12.8567 4.15733 12.0513 3.35004 11.2497C3.1961 11.0961 3.04966 11.0961 2.89196 11.2497C2.53901 11.5981 2.18981 11.9539 1.83686 12.3023C1.76551 12.3697 1.76927 12.411 1.83686 12.4784C2.11096 12.7481 2.3813 13.0216 2.65165 13.295C3.26744 13.9169 3.88698 14.5387 4.50277 15.1606C4.55158 15.2093 4.59289 15.2842 4.67925 15.198C5.05097 14.8272 5.42645 14.4563 5.79818 14.0854C5.85075 14.033 5.88454 13.9693 5.88454 13.8907H5.8883Z" fill="#525252" stroke="#525252" stroke-width="0.2"/>
<path d="M9.76696 1.00077C11.389 0.967055 12.9999 2.28192 13.0036 4.22987C13.0036 6.03173 11.5768 7.47022 9.7557 7.46647C7.96465 7.46647 6.5228 6.05795 6.51905 4.22987C6.51529 2.29691 8.12235 0.963309 9.76696 1.00077ZM9.75945 6.84463C11.2051 6.84463 12.3953 5.66462 12.3841 4.22613C12.3728 2.70523 11.1187 1.61887 9.76321 1.61887C8.40396 1.61887 7.14986 2.70897 7.13859 4.22238C7.12733 5.66462 8.3176 6.84463 9.75945 6.84463Z" fill="#525252" stroke="#525252" stroke-width="0.2"/>
<path d="M8.02114 10.9849C8.01363 11.1572 7.87466 11.2809 7.70189 11.2734C7.52911 11.2659 7.40517 11.1272 7.41268 10.9549C7.42019 10.7825 7.55916 10.6588 7.73193 10.6663C7.90471 10.6738 8.02865 10.8087 8.02114 10.9849Z" fill="#525252" stroke="#525252" stroke-width="0.2"/>
<path d="M10.5293 3.29015C10.5293 3.40628 10.4805 3.49619 10.3791 3.55612C10.274 3.61606 10.1651 3.61606 10.06 3.55612C9.99988 3.52241 9.95107 3.47371 9.89474 3.43625C9.77835 3.36508 9.65068 3.35009 9.53804 3.43625C9.44417 3.50368 9.40662 3.60108 9.44417 3.72095C9.48922 3.86705 9.59811 3.91949 9.74455 3.93073C10.1088 3.94946 10.3754 4.13302 10.5218 4.46267C10.6645 4.78858 10.6194 5.11074 10.3941 5.39544C10.319 5.49284 10.2214 5.56776 10.1088 5.6202C10.0299 5.65767 10.0036 5.71011 10.0074 5.79252C10.0111 5.87119 10.0111 5.94986 10.0074 6.02478C9.99612 6.18211 9.86095 6.30573 9.70325 6.30199C9.5493 6.30199 9.3916 6.17462 9.41037 6.02103C9.43666 5.77005 9.35781 5.61271 9.12125 5.51532C9.01612 5.47036 8.93727 5.37296 8.86593 5.27931C8.75704 5.14445 8.77206 4.97214 8.89221 4.85601C9.00485 4.74737 9.18884 4.74737 9.3165 4.8635C9.40662 4.94591 9.48922 5.03582 9.60938 5.07703C9.77084 5.12947 9.92854 5.04706 9.9736 4.88223C10.0149 4.7249 9.91352 4.58629 9.74455 4.56007C9.61313 4.54134 9.48172 4.5301 9.36156 4.47391C9.05367 4.33531 8.86593 4.0993 8.82462 3.76216C8.77957 3.38381 8.92225 3.08038 9.25267 2.88558C9.38034 2.81066 9.42164 2.73199 9.40662 2.59713C9.39911 2.54843 9.40662 2.49974 9.40662 2.45104C9.41788 2.28621 9.54179 2.17383 9.707 2.17383C9.87222 2.17383 10.0187 2.28621 10.0036 2.44729C9.97735 2.69828 10.0562 2.85187 10.2928 2.95675C10.4242 3.01295 10.5368 3.12158 10.5368 3.2939L10.5293 3.29015Z" fill="#525252" stroke="#525252" stroke-width="0.2"/>
</svg>
