<svg width="24" height="24" viewBox="0 0 24 24" fill="none" xmlns="http://www.w3.org/2000/svg">
<path d="M11.9153 21.6266C10.2084 21.6266 8.50158 21.6318 6.79472 21.6251C5.08116 21.6189 3.70373 20.3022 3.60181 18.5959C3.50658 16.9997 3.70579 15.4467 4.29567 13.956C4.66474 13.0233 5.23918 12.2445 6.13791 11.7514C6.72986 11.4266 7.37174 11.2902 8.04553 11.3231C8.39915 11.3406 8.65703 11.5785 8.93602 11.756C9.54444 12.1436 10.1539 12.5215 10.8668 12.698C12.0908 13.0007 13.2294 12.786 14.3027 12.155C14.5245 12.0247 14.7582 11.9053 14.9538 11.7421C15.537 11.2567 16.1871 11.249 16.8738 11.4235C18.2646 11.7761 19.0861 12.7366 19.5962 14.0085C20.1207 15.3165 20.2896 16.6893 20.2834 18.0909C20.2813 18.618 20.2556 19.1358 20.0394 19.6279C19.4788 20.9029 18.489 21.5829 17.1131 21.6148C15.3815 21.6549 13.6484 21.6246 11.9158 21.6246V21.6271L11.9153 21.6266ZM11.94 19.6809C11.94 19.6809 11.94 19.684 11.94 19.6861C12.0944 19.6861 12.2489 19.6861 12.4033 19.6861C13.9557 19.685 15.5082 19.6881 17.0601 19.6809C17.721 19.6778 18.2893 19.1816 18.3217 18.5588C18.3902 17.2637 18.2795 15.9861 17.8039 14.7662C17.545 14.1027 17.1795 13.5206 16.4239 13.3167C16.2715 13.2755 16.147 13.2894 16.0136 13.3805C15.6595 13.6214 15.2946 13.8464 14.9126 14.0415C13.4822 14.7703 11.9853 14.9701 10.419 14.5928C9.52282 14.3771 8.71726 13.9607 7.96626 13.4382C7.75264 13.2894 7.55292 13.258 7.31769 13.3543C7.15812 13.4192 7.00421 13.4897 6.86729 13.5973C6.48279 13.8989 6.25064 14.3076 6.07975 14.7513C5.60876 15.9728 5.47133 17.2452 5.55266 18.5423C5.59332 19.1955 6.1549 19.6814 6.82097 19.6814C8.52732 19.6819 10.2342 19.6814 11.9405 19.6814L11.94 19.6809Z" fill="#636366"/>
<path d="M11.8122 1.63961C14.0606 1.53152 16.6672 3.44273 16.627 6.49717C16.592 9.17071 14.4276 11.3012 11.7823 11.2667C9.12372 11.2317 6.93712 9.02813 6.97109 6.40812C7.00404 3.86584 9.09592 1.55571 11.8122 1.63961ZM11.8209 3.59921C10.18 3.46281 8.8751 5.06981 8.92452 6.51416C8.97651 8.04653 10.2917 9.33749 11.8673 9.3241C13.4017 9.31124 14.6937 8.00947 14.6808 6.48791C14.6669 4.80472 13.4583 3.58428 11.8209 3.5987V3.59921Z" fill="#636366"/>
</svg>
