<svg width="32" height="32" viewBox="0 0 32 32" fill="none" xmlns="http://www.w3.org/2000/svg">
<path d="M20.8792 3.66831L29.4506 11.954C29.5334 12.0341 29.5993 12.13 29.6442 12.236C29.6892 12.342 29.7124 12.456 29.7124 12.5712C29.7124 12.6863 29.6892 12.8003 29.6442 12.9064C29.5993 13.0124 29.5334 13.1083 29.4506 13.1883L20.8792 21.474C20.8008 21.5512 20.708 21.6122 20.606 21.6534C20.504 21.6946 20.3949 21.7152 20.2849 21.714C20.0575 21.714 19.8395 21.6237 19.6788 21.463C19.518 21.3022 19.4277 21.0842 19.4277 20.8569V16.5826C11.7706 16.8912 8.54773 21.1769 8.41059 21.3597C8.30148 21.5034 8.15088 21.61 7.97917 21.6652C7.80746 21.7204 7.62294 21.7215 7.45059 21.6683C7.27867 21.6129 7.12865 21.5046 7.02192 21.3589C6.9152 21.2132 6.85724 21.0375 6.85631 20.8569C6.85631 11.6912 14.3877 8.87974 19.4277 8.59402V4.28545C19.4281 4.11688 19.4782 3.95216 19.5717 3.8119C19.6652 3.67164 19.798 3.56206 19.9534 3.49688C20.1074 3.4305 20.2775 3.41135 20.4424 3.44187C20.6072 3.4724 20.7592 3.55121 20.8792 3.66831ZM21.142 15.714V18.8112L27.622 12.5712L21.142 6.30831V9.42831C21.1391 9.65472 21.0478 9.87102 20.8877 10.0311C20.7276 10.1912 20.5113 10.2825 20.2849 10.2855C19.1763 10.2855 10.1706 10.5369 8.75345 18.6055C12.0403 16.0453 16.1209 14.7188 20.2849 14.8569C20.5113 14.8598 20.7276 14.9511 20.8877 15.1112C21.0478 15.2713 21.1391 15.4876 21.142 15.714ZM25.9683 21.9689C26.1282 21.8087 26.3443 21.7173 26.5706 21.714C26.797 21.717 27.0133 21.8082 27.1734 21.9683C27.3335 22.1285 27.4248 22.3448 27.4277 22.5712V23.1426C27.4277 24.5823 26.8558 25.9631 25.8377 26.9812C24.8197 27.9992 23.4389 28.5712 21.9992 28.5712H8.85631C7.41656 28.5712 6.03578 27.9992 5.01773 26.9812C3.99967 25.9631 3.42773 24.5823 3.42773 23.1426V9.99974C3.42773 8.55999 3.99967 7.17921 5.01773 6.16116C6.03578 5.1431 7.41656 4.57117 8.85631 4.57117H13.9992C14.2265 4.57117 14.4445 4.66147 14.6053 4.82222C14.766 4.98296 14.8563 5.20098 14.8563 5.42831C14.8563 5.65564 14.766 5.87365 14.6053 6.0344C14.4445 6.19515 14.2265 6.28545 13.9992 6.28545H8.85631C7.87214 6.28847 6.92915 6.68076 6.23324 7.37667C5.53733 8.07258 5.14503 9.01557 5.14202 9.99974V23.1426C5.14503 24.1268 5.53733 25.0697 6.23324 25.7657C6.92915 26.4616 7.87214 26.8539 8.85631 26.8569H21.9992C22.9833 26.8539 23.9263 26.4616 24.6222 25.7657C25.3181 25.0697 25.7104 24.1268 25.7134 23.1426V22.5712C25.7167 22.3449 25.8081 22.1288 25.9683 21.9689Z" fill="white"/>
</svg>
