<svg width="18" height="18" viewBox="0 0 18 18" fill="none" xmlns="http://www.w3.org/2000/svg">
<path d="M18 9.27521C17.9539 9.60402 17.9189 9.93507 17.8609 10.2617C17.48 12.3937 16.4497 14.1501 14.7773 15.5227C13.5759 16.5084 12.2048 17.1608 10.6664 17.3773C7.54117 17.8184 4.86676 16.9027 2.72352 14.5615C1.61433 13.3504 0.942562 11.9087 0.636809 10.2959C0.573576 9.96259 0.711946 9.74909 1.04746 9.68585C1.40975 9.61741 1.77278 9.55567 2.13731 9.49838C2.40065 9.45747 2.60077 9.59212 2.66698 9.8696C2.75104 10.2222 2.82023 10.5778 2.94446 10.92C3.62664 12.791 4.8742 14.1286 6.71095 14.9082C7.71674 15.3352 8.77237 15.487 9.85552 15.3895C11.2526 15.2631 12.4927 14.7408 13.5632 13.8265C14.7952 12.7739 15.5577 11.4497 15.8203 9.85175C16.344 6.66403 14.6181 3.62659 11.5866 2.50624C9.44413 1.7147 7.38569 1.984 5.47381 3.25388C4.99398 3.57228 4.56994 3.9554 4.16152 4.43449C4.44421 4.38613 4.68078 4.3467 4.91735 4.30579C5.37263 4.22619 5.82717 4.14287 6.2832 4.06773C6.60308 4.01491 6.79353 4.14064 6.85899 4.45606C6.93487 4.82207 7.00183 5.19106 7.05613 5.56153C7.10003 5.8591 6.94231 6.05624 6.64549 6.10832C4.94041 6.4111 3.23608 6.71387 1.53101 7.01516C1.17615 7.07765 0.973063 6.92738 0.910574 6.57104C0.61226 4.87638 0.313202 3.18246 0.0126566 1.48929C-0.0453695 1.16196 0.101184 0.938786 0.42851 0.878529C0.761789 0.816783 1.09581 0.757269 1.43058 0.701474C1.80626 0.638985 2.00191 0.78777 2.06663 1.16643C2.18343 1.84637 2.30692 2.52558 2.42744 3.20552C2.50034 3.22412 2.51819 3.1594 2.54795 3.12444C3.39974 2.11344 4.42859 1.33604 5.62854 0.78405C6.43645 0.412088 7.28377 0.174776 8.16681 0.0683946C9.67326 -0.113123 11.1373 0.0631872 12.5411 0.638985C14.63 1.49599 16.1588 2.96077 17.149 4.98425C17.6139 5.93424 17.8832 6.94151 17.9658 7.99789C17.9695 8.04922 17.9881 8.09906 17.9993 8.14965V9.27521H18Z" fill="#636366"/>
</svg>
