<svg width="30" height="30" viewBox="0 0 30 30" fill="none" xmlns="http://www.w3.org/2000/svg">
<path fill-rule="evenodd" clip-rule="evenodd" d="M11.6032 19.4436C11.3312 19.4436 11.0592 19.3402 10.8523 19.1319C10.4372 18.7168 10.4372 18.0453 10.8523 17.6303L17.641 10.8416C18.0561 10.4265 18.7276 10.4265 19.1427 10.8416C19.5577 11.2567 19.5577 11.9282 19.1427 12.3433L12.354 19.1319C12.1472 19.3402 11.8752 19.4436 11.6032 19.4436Z" fill="white"/>
<path fill-rule="evenodd" clip-rule="evenodd" d="M18.3946 19.4477C18.1226 19.4477 17.8506 19.3443 17.6437 19.1361L10.8494 12.3403C10.4343 11.9252 10.4343 11.2537 10.8494 10.8387C11.2659 10.4236 11.9374 10.4236 12.3511 10.8387L19.1454 17.6344C19.5605 18.0495 19.5605 18.721 19.1454 19.1361C18.9386 19.3443 18.6651 19.4477 18.3946 19.4477Z" fill="white"/>
<path fill-rule="evenodd" clip-rule="evenodd" d="M8.85842 2.95801C5.27426 2.95801 2.95801 5.41309 2.95801 9.21401V20.7853C2.95801 24.5863 5.27426 27.0413 8.85842 27.0413H21.1381C24.7237 27.0413 27.0413 24.5863 27.0413 20.7853V9.21401C27.0413 5.41309 24.7237 2.95801 21.1395 2.95801H8.85842ZM21.1381 29.1663H8.85842C4.05734 29.1663 0.833008 25.7975 0.833008 20.7853V9.21401C0.833008 4.20184 4.05734 0.833008 8.85842 0.833008H21.1395C25.9406 0.833008 29.1663 4.20184 29.1663 9.21401V20.7853C29.1663 25.7975 25.9406 29.1663 21.1381 29.1663Z" fill="white"/>
</svg>
