<svg width="48" height="48" viewBox="0 0 48 48" fill="none" xmlns="http://www.w3.org/2000/svg">
<path d="M44.4001 35.267L28.0032 6.79137C27.5934 6.09373 27.0085 5.51528 26.3063 5.11336C25.6041 4.71144 24.8091 4.5 24.0001 4.5C23.191 4.5 22.396 4.71144 21.6938 5.11336C20.9916 5.51528 20.4067 6.09373 19.9969 6.79137L3.60006 35.267C3.20581 35.9418 2.99805 36.7092 2.99805 37.4907C2.99805 38.2723 3.20581 39.0397 3.60006 39.7145C4.00455 40.4164 4.5885 40.998 5.29199 41.3996C5.99547 41.8013 6.79315 42.0085 7.60318 42.0001H40.3969C41.2063 42.0079 42.0032 41.8003 42.706 41.3987C43.4088 40.997 43.9921 40.4158 44.3963 39.7145C44.7911 39.0401 44.9995 38.2728 45.0002 37.4913C45.0009 36.7097 44.7937 35.9421 44.4001 35.267ZM41.7994 38.2126C41.6565 38.4565 41.4513 38.6579 41.2048 38.7963C40.9584 38.9347 40.6795 39.005 40.3969 39.0001H7.60318C7.32058 39.005 7.04176 38.9347 6.7953 38.7963C6.54885 38.6579 6.34363 38.4565 6.20068 38.2126C6.0712 37.9934 6.0029 37.7435 6.0029 37.4889C6.0029 37.2343 6.0712 36.9843 6.20068 36.7651L22.5976 8.2895C22.7434 8.04682 22.9495 7.84601 23.196 7.7066C23.4424 7.56719 23.7207 7.49392 24.0038 7.49392C24.2869 7.49392 24.5652 7.56719 24.8117 7.7066C25.0581 7.84601 25.2642 8.04682 25.4101 8.2895L41.8069 36.7651C41.9353 36.985 42.0023 37.2353 42.001 37.4899C41.9996 37.7445 41.93 37.9941 41.7994 38.2126ZM22.5001 27.0001V19.5001C22.5001 19.1023 22.6581 18.7208 22.9394 18.4395C23.2207 18.1582 23.6022 18.0001 24.0001 18.0001C24.3979 18.0001 24.7794 18.1582 25.0607 18.4395C25.342 18.7208 25.5001 19.1023 25.5001 19.5001V27.0001C25.5001 27.3979 25.342 27.7795 25.0607 28.0608C24.7794 28.3421 24.3979 28.5001 24.0001 28.5001C23.6022 28.5001 23.2207 28.3421 22.9394 28.0608C22.6581 27.7795 22.5001 27.3979 22.5001 27.0001ZM26.2501 33.7501C26.2501 34.1951 26.1181 34.6301 25.8709 35.0002C25.6236 35.3702 25.2722 35.6586 24.8611 35.8288C24.45 35.9991 23.9976 36.0437 23.5611 35.9569C23.1246 35.8701 22.7237 35.6558 22.4091 35.3411C22.0944 35.0264 21.8801 34.6255 21.7933 34.1891C21.7065 33.7526 21.751 33.3002 21.9213 32.8891C22.0916 32.478 22.38 32.1266 22.75 31.8793C23.12 31.6321 23.555 31.5001 24.0001 31.5001C24.5968 31.5001 25.1691 31.7372 25.591 32.1591C26.013 32.5811 26.2501 33.1534 26.2501 33.7501Z" fill="#FDB022"/>
</svg>
