<svg width="20" height="20" viewBox="0 0 20 20" fill="none" xmlns="http://www.w3.org/2000/svg">
<path d="M14.8168 7.70746C14.8259 8.38501 14.6429 9.0203 14.4046 9.6412C13.8904 10.9802 13.131 12.1828 12.3192 13.3553C11.778 14.1374 11.1981 14.8912 10.5929 15.625C10.2818 16.0023 9.92534 16.0023 9.6138 15.6228C8.51882 14.2899 7.50054 12.9026 6.64739 11.4002C6.14718 10.5192 5.69969 9.61201 5.49316 8.61115C5.20384 7.2103 5.54065 5.94409 6.40208 4.82427C7.20555 3.77984 8.28222 3.17114 9.59332 3.0304C10.9916 2.88007 12.2277 3.28791 13.2665 4.23953C14.2808 5.16893 14.7767 6.33885 14.8163 7.70746H14.8168Z" fill="#525252"/>
<path d="M10.1063 16.915C11.2566 16.9045 12.3943 16.7978 13.4993 16.4566C13.9681 16.3119 14.4221 16.1307 14.8126 15.8222C14.8805 15.7686 14.9455 15.7089 15.0004 15.6427C15.1738 15.4348 15.1685 15.2584 14.9812 15.0645C14.6631 14.7355 14.2579 14.5507 13.8383 14.3935C13.701 14.342 13.5594 14.3024 13.4213 14.2531C13.1307 14.149 12.9812 13.8593 13.0688 13.5752C13.1551 13.2967 13.4548 13.1364 13.7468 13.2261C14.4365 13.4383 15.094 13.7137 15.6439 14.2026C16.3537 14.834 16.3951 15.7481 15.7398 16.4344C15.3825 16.8082 14.9407 17.0501 14.4718 17.2448C13.6588 17.5834 12.806 17.7673 11.9355 17.8784C11.2614 17.9646 10.5839 18.0126 9.905 17.996C8.54728 17.9629 7.20743 17.8052 5.9264 17.3198C5.39003 17.1163 4.8811 16.8623 4.47414 16.4414C3.81314 15.7577 3.84626 14.8475 4.55474 14.21C5.11857 13.7028 5.7983 13.4214 6.51245 13.2126C6.77258 13.1368 7.06103 13.319 7.13902 13.5804C7.22007 13.8527 7.08325 14.1403 6.81005 14.2423C6.56082 14.3355 6.30461 14.4083 6.06104 14.5176C5.76693 14.6501 5.48719 14.8039 5.25539 15.0331C5.02794 15.2579 5.02097 15.451 5.24232 15.6836C5.49068 15.9451 5.80614 16.1063 6.13207 16.2457C6.868 16.5599 7.64359 16.7167 8.43312 16.8135C8.98867 16.8814 9.5464 16.9202 10.1067 16.915H10.1063Z" fill="#525252"/>
</svg>
