<svg width="20" height="20" viewBox="0 0 20 20" fill="none" xmlns="http://www.w3.org/2000/svg">
<path d="M9.74853 12.4307C9.80483 12.1566 9.85702 11.9019 9.90879 11.6475C9.9618 11.3862 10.0103 11.1236 10.0699 10.8639C10.09 10.7759 10.0695 10.7176 10.0074 10.6592C9.91783 10.575 9.83318 10.4854 9.74689 10.3975C9.67374 10.3231 9.67005 10.2483 9.73949 10.1665C9.89277 9.98615 10.0699 9.86287 10.3226 9.88506C10.4397 9.89533 10.5589 9.89492 10.676 9.88506C10.9291 9.86369 11.105 9.98902 11.2574 10.1698C11.3207 10.245 11.3207 10.3174 11.255 10.3897C11.2414 10.4049 11.2287 10.423 11.2122 10.4336C10.918 10.626 10.8958 10.8807 10.9879 11.2013C11.091 11.56 11.1424 11.9335 11.2172 12.3001C11.225 12.3387 11.2258 12.3814 11.2759 12.4188C11.3663 12.2881 11.4572 12.1603 11.5447 12.0301C12.0616 11.2584 12.5732 10.4825 12.9821 9.6459C13.2003 9.19923 13.4267 8.75297 13.4226 8.23438C13.4218 8.12014 13.4904 8.15918 13.5459 8.19329C13.8085 8.35684 14.0464 8.55079 14.2551 8.77927C14.3381 8.87008 14.4129 8.96788 14.4914 9.0628C14.5678 9.15567 14.5654 9.20211 14.4277 9.22799C13.7365 9.35744 13.2578 9.95204 13.2775 10.6572C13.2874 11.0139 13.4132 11.3323 13.6634 11.5888C14.0751 12.0112 14.4951 12.4254 14.9118 12.8433C14.9262 12.8577 14.9397 12.8766 14.9574 12.884C15.2019 12.9863 15.2179 13.1864 15.2048 13.4157C15.1855 13.7486 15.2118 14.0822 15.1851 14.4159C15.1366 15.0233 14.6315 15.5114 14.0234 15.5123C11.6712 15.5147 9.31871 15.5151 6.96658 15.5123C6.36047 15.5114 5.85708 15.0228 5.80942 14.4126C5.77695 13.9972 5.79997 13.5813 5.79298 13.1659C5.79175 13.1026 5.80038 13.0414 5.86489 13.0073C6.03625 12.9164 6.1587 12.7689 6.29266 12.635C6.64113 12.2873 6.99617 11.945 7.33353 11.5867C7.99923 10.8787 7.76665 9.72316 6.88563 9.32415C6.77303 9.2732 6.65551 9.23827 6.53264 9.22224C6.44594 9.21074 6.42745 9.17129 6.47963 9.09896C6.74715 8.7279 7.0763 8.42341 7.46585 8.18466C7.53201 8.14398 7.57598 8.15343 7.57392 8.23931C7.5616 8.69297 7.74733 9.09116 7.93389 9.48441C8.42166 10.513 9.05448 11.4544 9.69676 12.3896C9.7021 12.3974 9.71237 12.4024 9.74894 12.432L9.74853 12.4307Z" fill="#525252"/>
<path d="M10.498 16.9209C8.23261 16.9209 5.96719 16.9209 3.70177 16.9204C3.61999 16.9204 3.5374 16.9192 3.45686 16.9069C3.07059 16.8477 2.89102 16.4997 3.06895 16.1512C3.10634 16.078 3.11127 16.0049 3.11127 15.9281C3.11127 15.137 3.11456 14.3464 3.10922 13.5554C3.10798 13.3516 3.1688 13.1909 3.3192 13.05C3.55836 12.8252 3.78765 12.5897 4.01571 12.3534C4.09132 12.2754 4.14721 12.2573 4.22775 12.346C4.34158 12.471 4.46321 12.5893 4.58608 12.706C4.65388 12.7709 4.64936 12.8211 4.58402 12.8852C4.38596 13.0787 4.19406 13.2788 3.99517 13.4716C3.92367 13.541 3.89162 13.6142 3.89244 13.7152C3.89572 14.383 3.8986 15.0503 3.89079 15.7181C3.88915 15.8672 3.94421 15.8964 4.07859 15.896C5.68283 15.8923 7.28708 15.8935 8.89132 15.8935C11.5566 15.8935 14.2218 15.8935 16.8871 15.8935C17.0306 15.8935 17.1025 15.8197 17.1028 15.6721C17.1028 15.0302 17.0999 14.3883 17.1053 13.7461C17.1061 13.6228 17.0695 13.5336 16.9804 13.4494C16.7905 13.2694 16.6122 13.0775 16.4236 12.8963C16.3471 12.8227 16.3418 12.7685 16.4215 12.6945C16.5456 12.5794 16.6639 12.4578 16.7811 12.3358C16.8423 12.2721 16.8916 12.2614 16.9594 12.3308C17.2244 12.6025 17.4944 12.8696 17.7615 13.1395C17.8667 13.246 17.8856 13.382 17.8852 13.5242C17.8844 14.3152 17.8852 15.1058 17.884 15.8968C17.884 16.0008 17.8996 16.0953 17.9477 16.1919C18.0931 16.4849 17.9218 16.8243 17.6009 16.897C17.5002 16.92 17.3979 16.9204 17.2951 16.9204C15.0297 16.9204 12.7643 16.9204 10.4989 16.9204L10.498 16.9209Z" fill="#525252"/>
<path d="M13.5143 6.04748C13.472 7.2519 13.0023 8.25743 12.0593 9.01024C11.0726 9.79757 9.87601 9.78936 8.89802 8.97614C7.8929 8.14073 7.39979 7.04932 7.48197 5.73436C7.56375 4.42557 8.65722 3.26471 9.97381 3.04363C11.7054 2.7527 13.3035 3.94807 13.5127 5.69409C13.5267 5.81038 13.5143 5.92996 13.5143 6.0479V6.04748ZM8.58982 6.23117C8.62434 6.87837 8.94733 7.56749 9.57193 8.09964C10.1452 8.58782 10.8142 8.60343 11.3944 8.11936C12.086 7.54284 12.4521 6.79208 12.3987 5.87695C12.3403 4.88005 11.4712 4.09395 10.4772 4.10998C9.41619 4.12724 8.58037 4.98812 8.58982 6.23076V6.23117Z" fill="#525252"/>
<path d="M7.25228 10.6171C7.25474 10.8719 7.17092 11.0938 6.99381 11.2738C6.58699 11.6872 6.17854 12.0985 5.76597 12.5057C5.55229 12.7165 5.26957 12.7231 5.04891 12.5168C4.82413 12.3068 4.60593 12.0886 4.39718 11.8626C4.19953 11.6485 4.19295 11.3757 4.3943 11.1674C4.81879 10.7289 5.24615 10.2913 5.69529 9.8787C5.98951 9.60831 6.35318 9.57544 6.71356 9.75296C7.06531 9.92637 7.24694 10.2202 7.25269 10.6171H7.25228Z" fill="#525252"/>
<path d="M13.7448 10.6145C13.7514 10.2249 13.9281 9.934 14.272 9.75853C14.6246 9.57896 14.9731 9.61717 15.2825 9.85921C15.4633 10.0006 15.6186 10.1748 15.7826 10.3371C16.0447 10.5972 16.3077 10.8569 16.5646 11.1224C16.8066 11.3726 16.807 11.65 16.5678 11.9003C16.3764 12.1004 16.1803 12.2964 15.9806 12.4883C15.7308 12.7283 15.4501 12.725 15.206 12.4821C14.8132 12.0913 14.4232 11.6977 14.0316 11.3052C13.841 11.1146 13.7399 10.8869 13.7448 10.6137V10.6145Z" fill="#525252"/>
</svg>
