<svg width="16" height="16" viewBox="0 0 16 16" fill="none" xmlns="http://www.w3.org/2000/svg">
<g clip-path="url(#clip0_669_26439)">
<path d="M6.90121 0.5C7.31116 0.5 7.7211 0.5 8.13104 0.5C8.37158 0.534834 8.61506 0.556102 8.8523 0.606336C11.8216 1.23372 13.7727 3.00037 14.7228 5.87621C14.8838 6.36352 14.9534 6.87137 15.011 7.37995V8.60942C14.993 8.75902 14.9791 8.90936 14.9564 9.05823C14.7052 10.7072 14.0078 12.1409 12.8168 13.3084C11.1638 14.9291 9.16837 15.6514 6.85428 15.4729C5.79751 15.3911 4.80785 15.082 3.88383 14.5686C1.11946 13.0337 -0.49392 9.90488 0.135664 6.6642C0.714646 3.68385 2.52016 1.73937 5.3971 0.788208C5.88442 0.627237 6.39263 0.557935 6.90121 0.5ZM7.50953 14.3087C10.9816 14.3098 13.8263 11.4772 13.8296 8.01613C13.8329 4.53307 11.0036 1.68473 7.53703 1.68143C4.04663 1.67813 1.20343 4.50887 1.20233 7.98863C1.20123 11.468 4.03527 14.3076 7.50953 14.3087Z" fill="#525252"/>
<path d="M6.91992 6.29509C6.91992 5.7293 6.91882 5.16352 6.92029 4.59774C6.92139 4.22666 7.17403 3.96266 7.52127 3.96486C7.86118 3.96706 8.11125 4.23033 8.11198 4.59334C8.11345 5.5786 8.11492 6.56386 8.10978 7.54949C8.10905 7.68589 8.15085 7.77316 8.26086 7.85456C8.89631 8.32427 9.52809 8.79875 10.1577 9.2758C10.5005 9.53577 10.5287 9.96478 10.2284 10.2336C10.011 10.4283 9.70226 10.4308 9.43642 10.2328C8.92014 9.84818 8.40606 9.4606 7.89125 9.07413C7.66904 8.90729 7.44867 8.73752 7.22353 8.57471C7.01379 8.42291 6.91332 8.22784 6.91735 7.96383C6.92615 7.40795 6.91992 6.8517 6.91992 6.29545V6.29509Z" fill="#525252"/>
</g>
<defs>
<clipPath id="clip0_669_26439">
<rect width="15.011" height="15" fill="white" transform="translate(0 0.5)"/>
</clipPath>
</defs>
</svg>
