<svg width="21" height="20" viewBox="0 0 21 20" fill="none" xmlns="http://www.w3.org/2000/svg">
<path fill-rule="evenodd" clip-rule="evenodd" d="M9.30849 0C11.7545 0 13.7445 1.99 13.7445 4.436V5.368C13.7445 5.782 13.4085 6.118 12.9945 6.118C12.5805 6.118 12.2445 5.782 12.2445 5.368V4.436C12.2445 2.816 10.9275 1.5 9.30849 1.5H4.43349C2.81649 1.5 1.50049 2.816 1.50049 4.436V15.565C1.50049 17.184 2.81649 18.5 4.43349 18.5H9.31949C10.9315 18.5 12.2445 17.188 12.2445 15.576V14.633C12.2445 14.219 12.5805 13.883 12.9945 13.883C13.4085 13.883 13.7445 14.219 13.7445 14.633V15.576C13.7445 18.016 11.7585 20 9.31949 20H4.43349C1.98949 20 0.000488281 18.011 0.000488281 15.565V4.436C0.000488281 1.99 1.98949 0 4.43349 0H9.30849ZM17.3886 6.554L20.3166 9.469C20.3427 9.49492 20.3661 9.52187 20.3875 9.55039L20.3166 9.469C20.352 9.50393 20.3835 9.5421 20.4109 9.5828C20.4229 9.60125 20.4345 9.62032 20.4453 9.63992C20.454 9.65523 20.462 9.67122 20.4695 9.68746C20.4758 9.70182 20.4818 9.71618 20.4875 9.73077C20.495 9.74977 20.5016 9.76931 20.5074 9.78911C20.5118 9.8047 20.5158 9.82026 20.5193 9.836C20.5237 9.8551 20.5273 9.87432 20.53 9.89368C20.5316 9.90627 20.5331 9.91947 20.5343 9.93276C20.5366 9.95557 20.5376 9.97774 20.5376 10L20.5325 10.062L20.5304 10.1017C20.5302 10.1034 20.53 10.1051 20.5297 10.1068L20.5376 10C20.5376 10.0555 20.5314 10.1105 20.5195 10.1639C20.5158 10.1797 20.5118 10.1953 20.5073 10.2107C20.5016 10.2307 20.495 10.2502 20.4876 10.2695C20.4818 10.2838 20.4758 10.2982 20.4693 10.3123C20.462 10.3288 20.454 10.3448 20.4454 10.3605C20.4345 10.3797 20.4229 10.3988 20.4105 10.4172C20.4035 10.4282 20.3958 10.439 20.3878 10.4497C20.364 10.481 20.338 10.5104 20.3099 10.5377L17.3886 13.447C17.2426 13.593 17.0506 13.666 16.8596 13.666C16.6676 13.666 16.4746 13.593 16.3286 13.445C16.0366 13.151 16.0376 12.677 16.3306 12.385L17.9705 10.75H7.74629C7.33229 10.75 6.99629 10.414 6.99629 10C6.99629 9.586 7.33229 9.25 7.74629 9.25H17.9725L16.3306 7.616C16.0376 7.324 16.0356 6.85 16.3286 6.556C16.6206 6.262 17.0946 6.262 17.3886 6.554Z" fill="#D92D20"/>
</svg>
