<svg width="23" height="19" viewBox="0 0 23 19" fill="none" xmlns="http://www.w3.org/2000/svg">
<path d="M19.75 12.0908C18.8551 12.0908 17 12.5851 16.0596 12.853C15.9348 11.5486 14.2496 11.0869 12.508 10.736C11.7131 10.5762 11.1214 10.2935 10.5494 10.0196C9.84394 9.6822 9.17793 9.36349 8.2917 9.36349C7.27686 9.36349 6.352 9.56936 5.8301 9.71177C5.69213 9.23569 5.30073 8.85195 4.78076 8.74912L1.04785 8.00879C0.914477 7.98215 0.773926 8.0168 0.667406 8.10288C0.561789 8.18943 0.5 8.31816 0.5 8.45444V15.7273C0.5 15.9785 0.705004 16.1818 0.958348 16.1818H3.83008C4.39606 16.1818 4.87839 15.8248 5.08575 15.3235C6.11279 15.809 10.8589 18 12.875 18C14.6528 18 18.3133 16.2155 20.7347 15.0348C21.3658 14.7272 21.8877 14.4724 22.2261 14.3254C22.3926 14.2526 22.5 14.0893 22.5 13.909C22.5 12.8384 21.3694 12.0908 19.75 12.0908ZM4.96518 10.1506L4.28396 14.8825C4.25173 15.1049 4.05657 15.2727 3.83008 15.2727H1.41665V9.00885L4.60171 9.64052C4.83984 9.68804 5.00007 9.91176 4.96518 10.1506ZM20.3301 14.2189C18.127 15.2931 14.4398 17.0909 12.875 17.0909C11.2082 17.0909 6.82981 15.1551 5.28384 14.4093C5.28212 14.4085 5.28019 14.4088 5.27847 14.408L5.81777 10.6621C6.15172 10.5585 7.17206 10.2727 8.29165 10.2727C8.96841 10.2727 9.49031 10.5226 10.1519 10.8386C10.7454 11.1227 11.4185 11.4445 12.3253 11.6274C14.3171 12.0278 15.1667 12.4384 15.1667 12.9999C15.1667 13.1109 15.1326 13.1792 15.0458 13.2436C14.7548 13.4598 13.6162 13.8229 9.33897 12.564C9.09457 12.4939 8.84127 12.6302 8.76873 12.8708C8.69711 13.1114 8.83499 13.3644 9.07759 13.4358C11.1893 14.0564 12.8033 14.3658 13.9474 14.3658C14.6931 14.3658 15.24 14.2344 15.5936 13.972C15.6241 13.9495 15.6464 13.9219 15.674 13.8977C15.7029 13.8945 15.7312 13.8978 15.7601 13.889C16.5703 13.6418 18.8665 13 19.75 13C20.4975 13 21.2843 13.225 21.5153 13.648C21.1957 13.7972 20.792 13.9943 20.3301 14.2189Z" fill="#D92D20" stroke="#D92D20" stroke-width="0.5"/>
<path d="M15.1484 9.85497C15.2451 9.95167 15.373 10 15.5 10C15.6269 10 15.7549 9.95167 15.8515 9.85497L19.6211 6.12109C20.1875 5.55419 20.5 4.80128 20.5 4C20.5 2.34569 19.1543 1 17.5 1C16.75 1 16.0459 1.27637 15.5 1.77245C14.9541 1.27637 14.25 1 13.5 1C11.8457 1 10.5 2.34569 10.5 4C10.5 4.80128 10.8125 5.55419 11.3809 6.12255L15.1484 9.85497ZM13.5 1.99998C14.1318 1.99998 14.7139 2.29591 15.0986 2.81247C15.2881 3.06541 15.7119 3.06541 15.9014 2.81247C16.2861 2.29586 16.8682 1.99998 17.5 1.99998C18.6025 1.99998 19.5 2.89694 19.5 4C19.5 4.53419 19.292 5.03612 18.916 5.41258L15.5 8.79639L12.0859 5.41408C11.708 5.03613 11.5 4.53419 11.5 4C11.5 2.89698 12.3975 1.99998 13.5 1.99998Z" fill="#D92D20" stroke="#D92D20" stroke-width="0.5"/>
</svg>
