<svg width="16" height="20" viewBox="0 0 16 20" fill="none" xmlns="http://www.w3.org/2000/svg">
<path d="M6.90862 0C7.29918 0 7.68922 0 8.07978 0C8.11733 0.00886456 8.15487 0.0203363 8.19346 0.0255508C10.6562 0.369183 12.499 2.48208 12.5053 4.97145C12.5074 5.73224 12.5095 6.49303 12.5032 7.25381C12.5016 7.42172 12.5553 7.49368 12.7279 7.48116C12.8635 7.47126 13.0007 7.47856 13.1373 7.4796C14.1682 7.4869 15.0014 8.3113 15.0025 9.34011C15.0056 12.2727 15.0056 15.2053 15.0025 18.1379C15.0014 19.1662 14.1682 19.9974 13.1378 19.9984C9.37296 20.001 5.60813 19.999 1.84331 20C1.4882 20 1.16439 19.8983 0.865598 19.7122C0.396298 19.4207 0.134011 18.9858 0 18.4623C0 15.3138 0 12.1648 0 9.0163C0.0198149 8.95424 0.0385869 8.89271 0.0589232 8.83066C0.29253 8.11472 0.777474 7.67566 1.51167 7.50984C1.7557 7.45457 2.00391 7.47699 2.24951 7.48273C2.42837 7.4869 2.48781 7.42537 2.48625 7.24599C2.47843 6.4925 2.47425 5.7385 2.48468 4.98501C2.50971 3.17038 3.30387 1.77083 4.80198 0.764959C5.43919 0.337896 6.15669 0.118889 6.90862 0ZM7.48273 7.47908C8.5105 7.47908 9.53826 7.47595 10.566 7.48221C10.7454 7.48325 10.8049 7.42433 10.8033 7.24547C10.796 6.49772 10.8022 5.74945 10.7996 5.00117C10.7923 2.97797 9.04237 1.45327 7.04002 1.72337C5.42354 1.94134 4.19763 3.33151 4.18981 4.95894C4.18616 5.70669 4.18876 6.45496 4.18928 7.20323C4.18928 7.47751 4.19085 7.47908 4.45887 7.47908C5.46682 7.47908 6.4753 7.47908 7.48325 7.47908H7.48273Z" fill="#B8B8BF"/>
</svg>
