<svg width="25" height="24" viewBox="0 0 25 24" fill="none" xmlns="http://www.w3.org/2000/svg">
<g clip-path="url(#clip0_3995_20973)">
<path d="M8.70068 21.9624C7.01329 21.9624 5.32652 21.9599 3.63912 21.9643C3.23915 21.9655 2.90292 21.8549 2.66981 21.5099C2.54669 21.328 2.50357 21.1256 2.50419 20.9118C2.50732 20.1481 2.48232 19.3825 2.52357 18.6207C2.64169 16.4184 3.60975 14.6522 5.37214 13.3348C6.59581 12.4199 7.9901 11.978 9.52251 11.9799C10.8818 11.9818 12.2405 11.9743 13.5998 11.9824C15.1065 11.9911 16.4627 12.4617 17.6745 13.3492C18.147 13.6954 18.2482 14.2941 17.9232 14.7547C17.6039 15.2072 16.9845 15.3178 16.5133 14.9772C15.5353 14.2704 14.4497 13.9554 13.2435 13.9791C12.018 14.0035 10.7912 13.9816 9.565 13.9854C7.09828 13.9923 5.10716 15.6097 4.60219 18.0183C4.47845 18.6101 4.51532 19.2132 4.50969 19.8125C4.50844 19.925 4.55657 19.9669 4.66406 19.96C4.72656 19.9563 4.78905 19.96 4.85155 19.96C7.80386 19.96 10.7568 19.96 13.7091 19.9613C13.8647 19.9613 14.0247 19.9613 14.1747 19.9956C14.6203 20.0981 14.9453 20.5512 14.9178 21.0056C14.8872 21.5049 14.5284 21.8936 14.0416 21.948C13.9254 21.9611 13.8079 21.963 13.691 21.963C12.0274 21.9636 10.3637 21.963 8.70006 21.963L8.70068 21.9624Z" fill="white"/>
<path d="M11.5077 2.00035C13.9476 1.96972 15.9787 3.97772 16.0143 6.45569C16.0493 8.89117 14.0294 10.9542 11.5765 10.9885C9.09037 11.0235 7.03988 9.03116 7.00676 6.54756C6.97363 4.04272 8.96288 2.03284 11.5077 2.00035ZM9.01413 6.47319C9.00976 7.85311 10.1197 8.97241 11.5033 8.98553C12.8539 8.99803 13.9976 7.8656 14.0063 6.50631C14.0151 5.12328 12.8808 3.99397 11.489 4.00085C10.1291 4.00772 9.01788 5.11703 9.01413 6.47319Z" fill="white"/>
<path d="M22.5002 16.9779C22.5002 17.2604 22.3946 17.4972 22.1996 17.6928C21.2078 18.6859 20.2185 19.6808 19.2186 20.6651C18.7967 21.0801 18.2167 21.0764 17.7936 20.6633C17.1299 20.0152 16.4737 19.359 15.8231 18.6978C15.4075 18.2753 15.4094 17.6753 15.8081 17.2747C16.2075 16.8741 16.8275 16.8816 17.2524 17.2985C17.6255 17.6641 17.9974 18.0309 18.3599 18.4072C18.4717 18.5228 18.5342 18.5297 18.6517 18.4103C19.3579 17.6941 20.0673 16.981 20.7866 16.2779C21.3484 15.7286 22.2552 15.9761 22.4621 16.7254C22.4846 16.8066 22.4884 16.8935 22.5009 16.9773L22.5002 16.9779Z" fill="white"/>
</g>
<defs>
<clipPath id="clip0_3995_20973">
<rect width="20" height="19.965" fill="white" transform="translate(2.5 2)"/>
</clipPath>
</defs>
</svg>
