<svg width="24" height="24" viewBox="0 0 24 24" fill="none" xmlns="http://www.w3.org/2000/svg">
<g clip-path="url(#clip0_1265_29833)">
<path d="M9.88625 5.00292C11.3728 5.00292 12.8594 5.00485 14.345 5.00196C15.8614 4.99908 16.978 5.62273 17.5738 7.05645C17.667 7.28035 17.7775 7.27554 17.9572 7.16888C18.4415 6.88156 18.9296 6.60096 19.4197 6.32229C20.619 5.64291 21.8586 6.27905 21.9749 7.64743C22.0142 8.11156 21.9998 8.58146 21.9998 9.04847C22.0018 11.2778 22.0018 13.5072 21.9998 15.7376C21.9998 15.9768 21.9893 16.2171 21.9662 16.4554C21.8499 17.6469 20.644 18.309 19.5764 17.7555C19.045 17.4797 18.5309 17.1703 18.0177 16.8599C17.7823 16.7177 17.665 16.7187 17.542 17.007C16.9914 18.2985 15.9748 18.9692 14.5929 18.9826C11.4651 19.0134 8.3353 19.0057 5.20745 18.9865C3.46623 18.9759 2.14494 17.7209 2.05653 15.9855C1.95179 13.9377 2.03251 11.8871 2.01906 9.8374C2.01521 9.22625 2.00176 8.61605 2.04692 8.00489C2.17665 6.27521 3.47103 5.04232 5.21225 5.00388C5.23628 5.00388 5.2603 5.00388 5.28432 5.00388C6.81894 5.00388 8.3526 5.00388 9.88721 5.00388L9.88625 5.00292ZM9.89971 17.002C11.4093 17.002 12.919 17.0039 14.4296 17.002C15.1368 17.001 15.9989 16.471 15.9998 15.7618C16.0027 13.3412 16.0027 10.9206 15.9998 8.5C15.9998 7.78506 15.1378 7.05741 14.4344 7.05645C11.4151 7.05453 8.39488 7.05453 5.37561 7.05645C4.68374 7.05645 4.00272 7.68202 4.00272 8.36428C4.00079 10.7849 4.00079 13.2055 4.00272 15.6261C4.00272 16.3141 4.67989 16.9991 5.36985 17.001C6.87948 17.0048 8.38911 17.002 9.89971 17.002ZM19.9998 12.0091C19.9998 11.1241 19.996 10.2381 20.0027 9.35309C20.0046 9.08691 19.5542 8.98697 19.2871 9.15033C18.8787 9.39921 18.4626 9.63657 18.0437 9.86815C17.8534 9.97386 17.7813 10.118 17.7823 10.3342C17.789 11.447 17.789 12.5597 17.7823 13.6725C17.7813 13.8916 17.864 14.029 18.0523 14.1328C18.4607 14.3586 18.8605 14.5998 19.266 14.8295C19.5667 14.9996 20.0008 14.8508 20.0027 14.502C20.0066 13.6285 19.9998 12.8826 19.9998 12.0091Z" fill="#636366"/>
</g>
<defs>
<clipPath id="clip0_1265_29833">
<rect width="20" height="14.0009" fill="white" transform="translate(2 5)"/>
</clipPath>
</defs>
</svg>
