<svg width="25" height="24" viewBox="0 0 25 24" fill="none" xmlns="http://www.w3.org/2000/svg">
<path d="M6.5 4.5C6.10218 4.5 5.72064 4.65804 5.43934 4.93934C5.15804 5.22064 5 5.60218 5 6V18C5 18.3978 5.15804 18.7794 5.43934 19.0607C5.72064 19.342 6.10218 19.5 6.5 19.5V14.25C6.5 13.6533 6.73705 13.081 7.15901 12.659C7.58097 12.2371 8.15326 12 8.75 12H16.25C16.8467 12 17.419 12.2371 17.841 12.659C18.2629 13.081 18.5 13.6533 18.5 14.25V19.5C18.8978 19.5 19.2794 19.342 19.5607 19.0607C19.842 18.7794 20 18.3978 20 18V8.4315C19.9999 8.03371 19.8418 7.65224 19.5605 7.371L17.129 4.9395C16.8478 4.65818 16.4663 4.50008 16.0685 4.5H15.5V6.75C15.5 7.34674 15.2629 7.91903 14.841 8.34099C14.419 8.76295 13.8467 9 13.25 9H10.25C9.65326 9 9.08097 8.76295 8.65901 8.34099C8.23705 7.91903 8 7.34674 8 6.75V4.5H6.5ZM9.5 4.5V6.75C9.5 6.94891 9.57902 7.13968 9.71967 7.28033C9.86032 7.42098 10.0511 7.5 10.25 7.5H13.25C13.4489 7.5 13.6397 7.42098 13.7803 7.28033C13.921 7.13968 14 6.94891 14 6.75V4.5H9.5ZM17 19.5V14.25C17 14.0511 16.921 13.8603 16.7803 13.7197C16.6397 13.579 16.4489 13.5 16.25 13.5H8.75C8.55109 13.5 8.36032 13.579 8.21967 13.7197C8.07902 13.8603 8 14.0511 8 14.25V19.5H17ZM3.5 6C3.5 5.20435 3.81607 4.44129 4.37868 3.87868C4.94129 3.31607 5.70435 3 6.5 3H16.0685C16.8641 3.00017 17.627 3.31635 18.1895 3.879L20.621 6.3105C21.1836 6.87298 21.4998 7.63592 21.5 8.4315V18C21.5 18.7956 21.1839 19.5587 20.6213 20.1213C20.0587 20.6839 19.2956 21 18.5 21H6.5C5.70435 21 4.94129 20.6839 4.37868 20.1213C3.81607 19.5587 3.5 18.7956 3.5 18V6Z" fill="white"/>
</svg>
