<svg width="24" height="24" viewBox="0 0 24 24" fill="none" xmlns="http://www.w3.org/2000/svg">
<path opacity="0.2" d="M21.75 12.75V18.75C21.75 18.9489 21.671 19.1397 21.5303 19.2803C21.3897 19.421 21.1989 19.5 21 19.5H3C2.80109 19.5 2.61032 19.421 2.46967 19.2803C2.32902 19.1397 2.25 18.9489 2.25 18.75V12.75C2.25 12.5511 2.32902 12.3603 2.46967 12.2197C2.61032 12.079 2.80109 12 3 12H21C21.1989 12 21.3897 12.079 21.5303 12.2197C21.671 12.3603 21.75 12.5511 21.75 12.75Z" fill="#12B76A"/>
<path d="M22.5 12.7496V18.7496C22.5 19.1474 22.342 19.529 22.0607 19.8103C21.7794 20.0916 21.3978 20.2496 21 20.2496H3C2.60218 20.2496 2.22064 20.0916 1.93934 19.8103C1.65804 19.529 1.5 19.1474 1.5 18.7496V12.7496C1.5 12.3518 1.65804 11.9703 1.93934 11.689C2.22064 11.4076 2.60218 11.2496 3 11.2496H7.5C7.69891 11.2496 7.88968 11.3286 8.03033 11.4693C8.17098 11.6099 8.25 11.8007 8.25 11.9996C8.25 12.1985 8.17098 12.3893 8.03033 12.5299C7.88968 12.6706 7.69891 12.7496 7.5 12.7496H3V18.7496H21V12.7496H16.5C16.3011 12.7496 16.1103 12.6706 15.9697 12.5299C15.829 12.3893 15.75 12.1985 15.75 11.9996C15.75 11.8007 15.829 11.6099 15.9697 11.4693C16.1103 11.3286 16.3011 11.2496 16.5 11.2496H21C21.3978 11.2496 21.7794 11.4076 22.0607 11.689C22.342 11.9703 22.5 12.3518 22.5 12.7496ZM8.03063 7.28024L11.25 4.05993V11.9996C11.25 12.1985 11.329 12.3893 11.4697 12.5299C11.6103 12.6706 11.8011 12.7496 12 12.7496C12.1989 12.7496 12.3897 12.6706 12.5303 12.5299C12.671 12.3893 12.75 12.1985 12.75 11.9996V4.05993L15.9694 7.28024C16.1101 7.42097 16.301 7.50003 16.5 7.50003C16.699 7.50003 16.8899 7.42097 17.0306 7.28024C17.1714 7.13951 17.2504 6.94864 17.2504 6.74961C17.2504 6.55059 17.1714 6.35972 17.0306 6.21899L12.5306 1.71899C12.461 1.64926 12.3783 1.59394 12.2872 1.55619C12.1962 1.51845 12.0986 1.49902 12 1.49902C11.9014 1.49902 11.8038 1.51845 11.7128 1.55619C11.6217 1.59394 11.539 1.64926 11.4694 1.71899L6.96937 6.21899C6.82864 6.35972 6.74958 6.55059 6.74958 6.74961C6.74958 6.94864 6.82864 7.13951 6.96938 7.28024C7.11011 7.42097 7.30098 7.50003 7.5 7.50003C7.69902 7.50003 7.88989 7.42097 8.03063 7.28024ZM18.75 15.7496C18.75 15.5271 18.684 15.3096 18.5604 15.1246C18.4368 14.9396 18.2611 14.7954 18.0555 14.7102C17.85 14.6251 17.6238 14.6028 17.4055 14.6462C17.1873 14.6896 16.9868 14.7968 16.8295 14.9541C16.6722 15.1115 16.565 15.3119 16.5216 15.5301C16.4782 15.7484 16.5005 15.9746 16.5856 16.1801C16.6708 16.3857 16.815 16.5614 17 16.685C17.185 16.8086 17.4025 16.8746 17.625 16.8746C17.9234 16.8746 18.2095 16.7561 18.4205 16.5451C18.6315 16.3341 18.75 16.048 18.75 15.7496Z" fill="#12B76A"/>
</svg>
